<?xml version="1.0" standalone="no"?>
<!DOCTYPE svg PUBLIC "-//W3C//DTD SVG 20010904//EN"
 "http://www.w3.org/TR/2001/REC-SVG-20010904/DTD/svg10.dtd">
<svg version="1.0" xmlns="http://www.w3.org/2000/svg"
 width="1008.000000pt" height="1008.000000pt" viewBox="0 0 1008.000000 1008.000000"
 preserveAspectRatio="xMidYMid meet">
<metadata>
Created by potrace 1.14, written by Peter Selinger 2001-2017
</metadata>
<g transform="translate(0.000000,1008.000000) scale(0.100000,-0.100000)"
fill="#000000" stroke="none">
<path d="M4770 9759 c-600 -35 -1196 -190 -1725 -449 -1149 -563 -1998 -1540
-2409 -2772 -248 -741 -300 -1511 -160 -2353 114 -688 432 -1422 872 -2011
367 -493 881 -946 1432 -1264 471 -271 1045 -469 1591 -549 588 -87 1230 -56
1791 84 1112 279 2124 1010 2770 2000 361 554 614 1222 707 1870 41 284 46
363 45 750 0 356 -2 393 -27 580 -105 776 -359 1447 -788 2080 -248 366 -547
693 -915 1001 -605 505 -1383 859 -2164 983 -316 51 -697 69 -1020 50z m290
-61 c0 -29 124 -261 177 -333 148 -199 250 -282 498 -407 98 -49 214 -112 257
-140 146 -93 240 -227 274 -390 23 -107 14 -268 -20 -375 -15 -46 -31 -83 -35
-83 -5 0 -28 7 -52 16 -56 19 -233 71 -422 124 -82 22 -165 49 -185 59 -98 50
-252 215 -341 366 -47 79 -102 201 -137 303 -11 28 -23 51 -28 49 -5 -2 -20
-36 -33 -76 -75 -232 -220 -440 -422 -605 -65 -53 -72 -56 -186 -81 -148 -32
-297 -75 -415 -120 -51 -19 -96 -35 -101 -35 -17 0 -49 80 -64 157 -19 100
-19 243 0 316 19 75 73 181 121 239 22 25 73 74 114 107 68 56 125 87 343 191
110 51 215 128 318 230 129 129 211 253 297 453 19 43 42 63 42 35z m-1691
-1303 c163 -39 346 -181 423 -330 61 -119 73 -100 -129 -205 -98 -51 -221
-121 -273 -155 -159 -107 -170 -110 -350 -110 -222 0 -368 32 -560 121 -52 25
-100 43 -107 42 -8 -2 1 -31 28 -92 98 -220 145 -435 136 -616 -7 -136 -29
-203 -106 -320 -34 -52 -104 -177 -154 -278 -88 -175 -93 -183 -117 -177 -60
15 -159 82 -235 159 -132 133 -185 266 -185 468 0 133 17 216 74 356 59 145
84 252 96 399 17 206 -14 419 -88 604 -35 88 -31 92 60 55 305 -122 633 -129
894 -21 120 49 254 93 317 104 83 14 207 12 276 -4z m3666 -5 c26 -6 113 -35
193 -65 220 -82 284 -96 452 -102 179 -6 281 9 467 72 73 25 137 45 142 45 5
0 -10 -55 -34 -122 -66 -189 -79 -266 -79 -458 0 -192 17 -280 84 -456 70
-182 81 -228 87 -364 9 -206 -25 -331 -126 -457 -65 -82 -253 -212 -307 -213
-6 0 -48 74 -92 165 -44 90 -115 218 -156 284 -105 167 -110 184 -110 371 0
213 31 357 121 557 25 56 43 107 41 113 -2 6 -37 -6 -86 -30 -202 -97 -353
-133 -562 -134 -186 -1 -221 9 -381 115 -120 80 -243 147 -366 202 -36 16 -63
34 -63 43 0 26 76 167 119 221 85 105 231 193 364 219 77 14 213 12 292 -6z
m-1793 -405 c408 -18 906 -176 1290 -407 514 -311 936 -796 1169 -1346 186
-438 259 -818 246 -1277 -9 -304 -62 -603 -153 -867 -161 -462 -380 -814 -719
-1153 -376 -376 -816 -629 -1323 -761 -404 -105 -922 -112 -1327 -19 -538 124
-1010 383 -1396 765 -330 327 -550 668 -707 1096 -97 263 -140 461 -168 764
-63 694 117 1379 515 1955 104 151 203 269 345 410 508 505 1178 805 1886 844
80 4 163 6 185 5 22 -2 93 -6 157 -9z m-3230 -1700 c37 -7 88 -23 113 -34 42
-19 44 -21 35 -46 -21 -55 -93 -306 -131 -453 -21 -85 -51 -177 -66 -206 -36
-66 -217 -247 -311 -309 -93 -62 -226 -130 -306 -157 -110 -36 -110 -41 -4
-79 117 -42 252 -111 331 -169 136 -100 298 -280 316 -350 5 -20 21 -91 36
-157 15 -66 51 -193 81 -283 30 -90 54 -170 54 -178 0 -18 -84 -57 -158 -73
-76 -16 -224 -14 -295 5 -92 24 -189 77 -261 145 -89 83 -144 173 -265 431
-65 141 -136 242 -247 354 -103 103 -198 169 -361 252 -62 31 -113 60 -113 64
0 4 48 30 106 58 146 68 262 148 364 250 137 135 200 232 280 425 67 162 153
291 251 379 58 52 173 113 251 132 72 17 218 17 300 -1z m6419 -17 c204 -75
329 -215 454 -504 62 -146 121 -243 209 -345 122 -141 258 -241 434 -319 57
-26 104 -51 104 -55 0 -5 -60 -39 -132 -77 -73 -37 -167 -93 -209 -125 -149
-111 -288 -276 -357 -421 -107 -228 -179 -363 -219 -414 -131 -164 -360 -257
-565 -229 -90 12 -210 49 -217 67 -2 7 20 86 50 176 31 90 68 219 82 288 41
191 42 194 92 261 132 180 249 268 526 394 165 76 164 73 47 115 -174 61 -337
166 -475 305 -116 117 -147 168 -170 285 -23 121 -78 316 -125 448 l-40 113
32 14 c36 14 134 41 183 49 75 11 230 -2 296 -26z m-6159 -2636 c48 -97 119
-226 158 -287 100 -155 114 -207 107 -389 -7 -201 -45 -353 -136 -550 -23 -49
-39 -91 -37 -93 2 -2 44 16 92 40 200 100 367 140 579 140 175 -1 206 -11 375
-123 69 -46 194 -116 278 -157 83 -41 152 -76 152 -79 0 -3 -21 -47 -47 -97
-37 -73 -65 -110 -133 -177 -141 -141 -257 -185 -470 -178 -134 5 -104 -3
-412 107 -154 56 -257 74 -413 74 -166 -1 -293 -24 -452 -82 -57 -21 -106 -35
-109 -30 -2 4 13 61 35 126 51 150 69 243 77 385 11 182 -13 320 -91 528 -113
306 -119 508 -17 705 50 98 171 217 277 272 44 23 85 43 90 43 6 0 49 -80 97
-178z m5723 144 c65 -30 168 -114 223 -179 95 -114 150 -289 138 -434 -9 -115
-33 -214 -87 -361 -68 -183 -88 -279 -95 -442 -8 -193 17 -343 95 -554 12 -32
20 -61 17 -63 -3 -3 -51 11 -108 31 -148 52 -265 76 -409 83 -192 9 -345 -19
-532 -97 -159 -66 -235 -83 -367 -84 -132 0 -195 15 -305 72 -94 49 -208 163
-257 257 -68 130 -69 119 20 164 67 34 149 81 442 252 101 59 169 73 335 66
203 -9 359 -49 539 -139 43 -22 80 -37 82 -35 2 2 -16 53 -42 113 -89 214
-124 378 -124 591 0 164 6 182 111 349 45 71 114 198 155 282 83 171 81 170
169 128z m-3959 -1712 c87 -31 235 -75 327 -99 190 -49 207 -58 326 -177 143
-143 257 -328 317 -511 15 -48 33 -86 38 -84 6 2 24 44 41 93 63 179 162 344
289 481 115 123 167 154 328 192 73 18 215 60 316 94 159 53 184 59 196 47 26
-27 57 -153 63 -250 11 -186 -44 -349 -159 -475 -75 -82 -162 -139 -340 -224
-181 -87 -302 -168 -405 -271 -127 -127 -212 -252 -280 -410 -21 -49 -41 -90
-45 -90 -3 0 -36 57 -72 126 -92 175 -146 254 -249 361 -127 131 -231 200
-435 287 -46 20 -115 57 -155 82 -93 60 -213 183 -254 259 -77 146 -94 321
-48 495 30 111 35 130 39 130 1 0 74 -25 162 -56z"/>
<path d="M4815 7819 c-489 -43 -1004 -243 -1407 -547 -492 -372 -859 -925
-1014 -1529 -69 -269 -79 -354 -79 -683 0 -317 10 -416 61 -650 110 -493 374
-977 732 -1338 227 -228 469 -402 757 -542 175 -85 327 -141 521 -191 244 -62
404 -82 649 -82 745 0 1409 275 1935 803 420 422 686 951 786 1565 21 134 30
557 15 707 -63 600 -336 1192 -755 1635 -572 606 -1389 922 -2201 852z m362
-562 c120 -207 424 -734 556 -964 l82 -142 683 -1 c375 0 682 -2 682 -4 0 -3
-58 -105 -129 -228 -164 -285 -457 -792 -509 -882 -48 -82 -59 -45 92 -304 57
-97 146 -251 198 -342 52 -91 152 -263 222 -383 69 -120 126 -222 126 -227 0
-6 -258 -11 -686 -12 l-685 -3 -167 -290 c-290 -502 -442 -766 -514 -889 l-70
-118 -120 208 c-67 115 -185 319 -263 454 -77 135 -193 334 -255 443 l-115
197 -682 0 c-480 0 -683 3 -683 11 0 9 105 193 527 922 78 136 143 254 143
262 0 8 -32 69 -71 136 -39 67 -137 237 -218 378 -82 141 -201 347 -265 458
-64 111 -116 204 -116 207 0 3 307 7 681 8 l681 3 88 150 c48 83 159 274 246
425 376 648 418 720 423 720 4 0 56 -87 118 -193z"/>
<path d="M4978 6998 c-42 -73 -142 -248 -223 -388 -81 -140 -225 -390 -320
-555 -95 -165 -212 -367 -259 -449 -47 -82 -86 -151 -86 -153 0 -2 -36 -63
-80 -137 -44 -74 -131 -224 -193 -333 -63 -109 -145 -252 -184 -318 -191 -328
-413 -714 -413 -719 0 -3 828 -6 1840 -6 1012 0 1840 3 1840 6 0 3 -50 92
-112 197 -61 106 -170 293 -241 417 -72 124 -194 335 -272 470 -78 135 -195
337 -259 450 -65 113 -159 275 -209 360 -49 85 -140 243 -202 350 -62 107
-178 310 -260 450 -81 140 -177 308 -214 372 -36 65 -68 118 -71 118 -3 0 -40
-60 -82 -132z m248 -717 c135 -247 309 -565 404 -741 47 -87 197 -361 440
-805 76 -137 156 -286 180 -330 24 -44 52 -95 62 -112 l20 -33 -1272 0 -1271
0 52 98 c29 53 91 167 137 252 47 85 127 232 177 325 50 94 139 256 197 360
174 313 384 698 403 735 9 19 80 151 158 293 137 250 142 258 157 236 8 -12
78 -137 156 -278z"/>
<path d="M5033 6200 c-13 -21 -23 -41 -23 -44 0 -4 22 -6 50 -6 l50 0 -22 45
c-12 25 -24 45 -27 45 -4 0 -16 -18 -28 -40z"/>
<path d="M4902 5958 c-46 -77 -152 -276 -152 -287 0 -8 87 -11 310 -11 171 0
310 4 310 9 0 4 -38 78 -84 162 l-83 154 -141 3 -140 3 -20 -33z"/>
<path d="M4637 5473 c-46 -74 -277 -504 -277 -516 0 -7 65 -129 144 -272 l143
-260 411 -3 410 -2 90 162 c49 90 115 211 146 270 l57 107 -115 215 c-64 118
-131 241 -149 273 l-33 58 -402 3 -402 2 -23 -37z m469 -329 c76 -50 70 -170
-10 -208 -42 -20 -57 -20 -101 -2 -79 33 -87 159 -13 210 29 21 92 20 124 0z"/>
<path d="M4175 4630 c-77 -143 -86 -165 -76 -186 l11 -24 175 0 c96 0 175 3
175 7 0 6 -113 216 -173 321 l-25 44 -87 -162z"/>
<path d="M5784 4668 c-34 -62 -78 -143 -99 -180 l-37 -68 179 0 c237 0 232 -9
118 201 -45 84 -87 155 -92 156 -4 2 -36 -48 -69 -109z"/>
<path d="M3217 5983 c-3 -5 43 -89 102 -189 58 -99 169 -289 246 -422 76 -133
142 -242 145 -242 3 0 47 74 99 165 l93 164 -51 95 c-28 52 -51 97 -51 100 0
3 50 7 111 8 l112 3 88 154 c49 85 89 158 89 163 0 10 -977 11 -983 1z"/>
<path d="M5941 5933 c18 -32 60 -105 94 -163 l61 -105 112 -3 c62 -1 112 -5
112 -8 0 -2 -22 -44 -50 -93 -27 -49 -50 -94 -50 -101 0 -14 182 -330 190
-330 3 0 59 93 125 208 65 114 174 303 242 420 68 117 123 217 123 223 0 5
-192 9 -496 9 l-495 0 32 -57z"/>
<path d="M4499 3753 c5 -10 82 -144 171 -298 89 -154 212 -367 273 -472 61
-106 113 -193 116 -193 3 0 43 64 87 143 143 248 444 770 465 804 l21 33 -169
0 -168 -1 -115 -209 c-63 -116 -117 -210 -120 -210 -3 0 -57 94 -120 210
l-115 209 -168 1 c-157 0 -167 -1 -158 -17z"/>
<path d="M5010 3765 c0 -12 41 -85 48 -85 7 0 52 73 52 84 0 4 -22 6 -50 6
-27 0 -50 -2 -50 -5z"/>
</g>
</svg>
