<svg id="Layer_1" data-name="Layer 1" xmlns="http://www.w3.org/2000/svg" viewBox="0 0 154.18 154.18"><defs><style>.cls-1,.cls-7{fill:#ffe138;}.cls-1,.cls-2,.cls-3,.cls-4,.cls-5,.cls-6{stroke:#231f20;stroke-miterlimit:10;stroke-width:3.04px;}.cls-2,.cls-8{fill:#ff2d36;}.cls-3{fill:#fb8d27;}.cls-4{fill:#5a6aff;}.cls-5{fill:none;}.cls-6{fill:#bd55ec;}</style></defs><circle class="cls-1" cx="77.09" cy="77.09" r="75.57"/><polygon class="cls-2" points="77.09 5.03 107.77 58.18 138.46 111.33 77.09 111.33 15.72 111.33 46.4 58.18 77.09 5.03"/><polygon class="cls-3" points="77.09 23.14 99.86 62.58 122.62 102.01 77.09 102.01 31.55 102.01 54.32 62.58 77.09 23.14"/><polygon class="cls-4" points="77.09 149.15 46.4 96 15.72 42.85 77.09 42.85 138.46 42.85 107.77 96 77.09 149.15"/><polyline class="cls-5" points="77.09 6.66 77.09 74.2 15.72 111.33"/><line class="cls-5" x1="138.46" y1="111.33" x2="77.09" y2="74.59"/><polygon class="cls-6" points="77.09 131.03 54.32 91.6 31.55 52.17 77.09 52.17 122.62 52.17 99.86 91.6 77.09 131.03"/><path class="cls-7" d="M52.36,78.35A24.76,24.76,0,1,1,77.09,103.1,24.77,24.77,0,0,1,52.36,78.35Zm24.76-21a21,21,0,1,0,21,21.16A21.05,21.05,0,0,0,77.12,57.31Z"/><path class="cls-8" d="M77.12,57.31a21,21,0,1,1-21,21.34A21,21,0,0,1,77.12,57.31Zm-18.29,21A18.3,18.3,0,1,0,77.14,60.05,18.3,18.3,0,0,0,58.83,78.34Z"/><path class="cls-8" d="M85.69,71.11c-1.3.33-2.56.63-3.8,1-.27.07-.3-.11-.37-.27a3.62,3.62,0,0,0-2.65-2.17c0,.13,0,.24,0,.34,0,1.82,0,3.63,0,5.45,0,.28.08.39.37.47,1.13.31,2.28.61,3.39,1,5,1.79,5.19,8.67,1.54,11.38a10.42,10.42,0,0,1-4.6,1.9l-.68.1v2.6H75.42V90.27c-.69-.16-1.35-.27-2-.46a7.67,7.67,0,0,1-5.69-5.06c0-.12-.07-.24-.1-.36s0,0,0-.13l4.07-.87a4.22,4.22,0,0,0,3.68,3.32v-.46c0-2,0-4.07,0-6.1,0-.34-.08-.47-.42-.56a22.3,22.3,0,0,1-2.28-.71,5.69,5.69,0,0,1-3.83-5.37c-.26-3.51,1.79-6.18,5.34-7.13.38-.1.77-.18,1.19-.27V63.82h3.41v2.27a9.31,9.31,0,0,1,5.59,2.64A5.45,5.45,0,0,1,85.69,71.11ZM78.86,86.75a3.28,3.28,0,0,0,3.26-2.93c0-1.79-.93-2.75-3.26-3.17Zm-3.48-17a2.69,2.69,0,0,0-2.15,2.54,2.63,2.63,0,0,0,2.15,2.52Z"/><path class="cls-7" d="M58.83,78.34a18.3,18.3,0,1,1,18.3,18.3A18.3,18.3,0,0,1,58.83,78.34Zm26.86-7.23a5.45,5.45,0,0,0-1.28-2.38,9.31,9.31,0,0,0-5.59-2.64V63.82H75.41v2.29c-.42.09-.81.17-1.19.27-3.55,1-5.6,3.62-5.34,7.13a5.69,5.69,0,0,0,3.83,5.37,22.3,22.3,0,0,0,2.28.71c.34.09.42.22.42.56,0,2,0,4.07,0,6.1v.46a4.22,4.22,0,0,1-3.68-3.32l-4.07.87c0,.08,0,.11,0,.13s.06.24.1.36a7.67,7.67,0,0,0,5.69,5.06c.64.19,1.3.3,2,.46v2.59h3.43v-2.6l.68-.1a10.42,10.42,0,0,0,4.6-1.9c3.65-2.71,3.51-9.59-1.54-11.38-1.11-.39-2.26-.69-3.39-1-.29-.08-.37-.19-.37-.47,0-1.82,0-3.63,0-5.45,0-.1,0-.21,0-.34a3.62,3.62,0,0,1,2.65,2.17c.07.16.1.34.37.27C83.13,71.74,84.39,71.44,85.69,71.11Z"/><path class="cls-7" d="M78.86,86.75v-6.1c2.33.42,3.24,1.38,3.26,3.17A3.28,3.28,0,0,1,78.86,86.75Z"/><path class="cls-7" d="M75.38,69.74V74.8a2.63,2.63,0,0,1-2.15-2.52A2.69,2.69,0,0,1,75.38,69.74Z"/></svg>