<svg id="Layer_1" data-name="Layer 1" xmlns="http://www.w3.org/2000/svg" viewBox="0 0 123.51 125.71"><defs><style>.cls-1{fill:#e4a34e;}.cls-2{fill:#fd0;}</style></defs><path class="cls-1" d="M123.51,61.89a66.52,66.52,0,0,1-2.68,19.36,61.19,61.19,0,0,1-4,10A63.6,63.6,0,0,1,109.28,103a60.19,60.19,0,0,1-5.89,6.27,61.45,61.45,0,0,1-12.17,8.82,60.63,60.63,0,0,1-10.72,4.65,61.58,61.58,0,0,1-26.83,2.4,59.74,59.74,0,0,1-16.33-4.54,58.11,58.11,0,0,1-14.69-9.16c-1.79-1.54-3.55-3.13-5.19-4.83A62.36,62.36,0,0,1,5,87.72,61.85,61.85,0,0,1,1,74a56.77,56.77,0,0,1-.86-7.91C.06,64.25,0,62.42,0,60.59a66.7,66.7,0,0,1,1-9.13,63.16,63.16,0,0,1,2.5-9.59A65.16,65.16,0,0,1,8.44,31.09a62.75,62.75,0,0,1,6.23-8.92A67.62,67.62,0,0,1,21,15.68a56.43,56.43,0,0,1,6.76-5.29c1.62-1.09,3.32-2.05,5-3a45.19,45.19,0,0,1,7-3.24c1.94-.72,3.89-1.41,5.89-1.94,2.25-.59,4.54-1.07,6.83-1.44,2-.32,3.92-.43,5.89-.59C59.5.05,60.68,0,61.86,0a58.55,58.55,0,0,1,9.25.72A59.66,59.66,0,0,1,86.37,5.16a60.6,60.6,0,0,1,14.55,9.08,63.94,63.94,0,0,1,11.67,12.9,63.45,63.45,0,0,1,10.64,29.42C123.44,58.67,123.46,60.8,123.51,61.89Zm-3.88.94a47.83,47.83,0,0,0-.51-8.11,57.14,57.14,0,0,0-2.1-9.5,58.63,58.63,0,0,0-6.45-14,55.17,55.17,0,0,0-6.73-8.77c-1.59-1.66-3.29-3.23-5-4.76A53.81,53.81,0,0,0,87.29,9.93,56.6,56.6,0,0,0,77.13,6,58.45,58.45,0,0,0,62,3.88c-1,0-1.94.1-2.91.12a50.11,50.11,0,0,0-7.73.87A56,56,0,0,0,36.07,10a58.32,58.32,0,0,0-18.4,14.63A58.33,58.33,0,0,0,9.24,38,59.93,59.93,0,0,0,5.56,48.55,55.29,55.29,0,0,0,3.9,60.27a61.17,61.17,0,0,0,.33,9.37,65.41,65.41,0,0,0,1.45,8A58.68,58.68,0,0,0,9,87.08,57.32,57.32,0,0,0,15.26,98a56.34,56.34,0,0,0,7.59,8.52,64.74,64.74,0,0,0,6.56,5.25,54.24,54.24,0,0,0,9.84,5.44,61.5,61.5,0,0,0,8.89,3,57.36,57.36,0,0,0,8.71,1.45c1.93.18,3.88.14,5.83.17a50.08,50.08,0,0,0,7.92-.66A53.86,53.86,0,0,0,79.54,119a57.81,57.81,0,0,0,21.77-13.09c1.39-1.32,2.68-2.75,4-4.19A55.88,55.88,0,0,0,113,90.37a58.34,58.34,0,0,0,4.83-12.65,56,56,0,0,0,1.82-13.38Z"/><path d="M119.63,62.83v1.51a56,56,0,0,1-1.82,13.38A58.34,58.34,0,0,1,113,90.37a55.88,55.88,0,0,1-7.71,11.32c-1.28,1.44-2.57,2.87-4,4.19A57.81,57.81,0,0,1,79.54,119a53.86,53.86,0,0,1-8.94,2.14,50.08,50.08,0,0,1-7.92.66c-2,0-3.9,0-5.83-.17a57.36,57.36,0,0,1-8.71-1.45,61.5,61.5,0,0,1-8.89-3,54.24,54.24,0,0,1-9.84-5.44,64.74,64.74,0,0,1-6.56-5.25A56.34,56.34,0,0,1,15.26,98,57.32,57.32,0,0,1,9,87.08a58.68,58.68,0,0,1-3.3-9.44,65.41,65.41,0,0,1-1.45-8,61.17,61.17,0,0,1-.33-9.37A55.29,55.29,0,0,1,5.56,48.55,59.93,59.93,0,0,1,9.24,38a58.33,58.33,0,0,1,8.43-13.37A58.32,58.32,0,0,1,36.07,10,56,56,0,0,1,51.38,4.87,50.11,50.11,0,0,1,59.11,4c1,0,1.94-.14,2.91-.12A58.45,58.45,0,0,1,77.13,6,56.6,56.6,0,0,1,87.29,9.93a53.81,53.81,0,0,1,11.54,7.71c1.72,1.53,3.42,3.1,5,4.76a55.17,55.17,0,0,1,6.73,8.77,58.63,58.63,0,0,1,6.45,14,57.14,57.14,0,0,1,2.1,9.5A47.83,47.83,0,0,1,119.63,62.83ZM61.77,26c-1.59.1-3.2.11-4.77.33A36,36,0,0,0,45.49,30,36.79,36.79,0,0,0,27.15,52a37.88,37.88,0,0,0-1.61,10.72c0,1.38.15,2.76.26,4.14a32.29,32.29,0,0,0,1.67,7.86A37.1,37.1,0,0,0,38.7,91.26a36,36,0,0,0,22,8.44,43.29,43.29,0,0,0,5.21-.26,33.37,33.37,0,0,0,11.34-3.27,36.87,36.87,0,0,0,19.44-23.6,37.85,37.85,0,0,0,.63-16.75A37.76,37.76,0,0,0,95,48.21a36.94,36.94,0,0,0-10-13.63A35.88,35.88,0,0,0,61.77,26Zm-15,.53a8.45,8.45,0,0,0-4.91-5.19,7.63,7.63,0,0,0-2.94-.51A13.18,13.18,0,0,0,34,22.09a12.23,12.23,0,0,1-4.45,1.09,16.32,16.32,0,0,1-7.76-1.4,5.36,5.36,0,0,0-.64-.16,16.42,16.42,0,0,1,1.57,5.72,24.64,24.64,0,0,1-.06,3.54,15,15,0,0,1-1.28,4.58,10.15,10.15,0,0,0-.75,5.88,8.29,8.29,0,0,0,5.41,6.19,2.31,2.31,0,0,0,.22-.34,39.51,39.51,0,0,1,3.52-6.45,2.17,2.17,0,0,0,.31-.63,10.2,10.2,0,0,0,.37-3.76,19,19,0,0,0-2-6.94,2.64,2.64,0,0,1-.17-.56.83.83,0,0,1,.25,0,2.26,2.26,0,0,1,.33.13,15.91,15.91,0,0,0,8.51,2,4.82,4.82,0,0,0,3.14-1A8.21,8.21,0,0,1,42,29C43.56,28.19,45.1,27.38,46.74,26.51ZM26.07,78.16a8.67,8.67,0,0,0-2.49,1.39,8,8,0,0,0-3,7.71,19.26,19.26,0,0,0,1.29,4.22,15.08,15.08,0,0,1,.86,6.62,16.38,16.38,0,0,1-1.32,5.31,2.26,2.26,0,0,0-.09.54c.12,0,.15,0,.17,0l.75-.28a16.32,16.32,0,0,1,8-1.12,21.38,21.38,0,0,1,4.67,1.35,10,10,0,0,0,5.62.79c3.15-.63,5-2.7,6.18-5.57-.32-.17-.56-.33-.83-.44a28,28,0,0,1-5.32-3,5.13,5.13,0,0,0-2.52-1,13.67,13.67,0,0,0-2.93,0,17.52,17.52,0,0,0-6.21,2c-.17.09-.35.14-.71.29.22-.47.34-.76.48-1a17.22,17.22,0,0,0,1.83-8.21,5.63,5.63,0,0,0-1-3.16,32.07,32.07,0,0,1-3.11-5.77A4.6,4.6,0,0,0,26.07,78.16Zm-.2-.51c-.05-.22-.06-.37-.11-.51A45.16,45.16,0,0,1,23.71,70a2.54,2.54,0,0,0-.37-.88,15.36,15.36,0,0,0-8.16-5.93l-.84-.32a4.77,4.77,0,0,1,.52-.26,16.5,16.5,0,0,0,7.47-4.73,6.49,6.49,0,0,0,1.62-3c.37-1.72.9-3.41,1.38-5.12.17-.58.38-1.16.58-1.76a8.88,8.88,0,0,0-4.77-.82,7.4,7.4,0,0,0-4.93,2.66A14,14,0,0,0,13.87,54a14.62,14.62,0,0,1-3.34,5,16.41,16.41,0,0,1-5.31,3.48c-.23.1-.45.23-.72.36,1.12.59,2.2,1.06,3.19,1.69a15,15,0,0,1,5.93,6.64,28.83,28.83,0,0,0,1.78,3.56,7.51,7.51,0,0,0,7.1,3.85A7.28,7.28,0,0,0,25.87,77.65Zm36-73.07c-.09.08-.15.11-.17.16-.1.21-.19.43-.28.65a15.7,15.7,0,0,1-8.77,8.9,11.79,11.79,0,0,0-3.2,1.87,8,8,0,0,0-2.79,4.11,8.26,8.26,0,0,0,0,4.19,3.83,3.83,0,0,0,.72,1.89,36.43,36.43,0,0,1,7.4-2.16,1.47,1.47,0,0,0,.72-.32,26.33,26.33,0,0,0,2.8-2.57,16.05,16.05,0,0,0,3.29-6.21,1.9,1.9,0,0,1,.29-.48c.28.76.52,1.42.77,2.08A15.9,15.9,0,0,0,67,23.1a5.21,5.21,0,0,0,2.33,1.21c1.78.42,3.53,1,5.29,1.45.56.16,1.1.39,1.71.6A9.49,9.49,0,0,0,77,20.6a7.55,7.55,0,0,0-3.51-4.91A21.8,21.8,0,0,0,70.28,14a14.83,14.83,0,0,1-4.74-3.36,16.23,16.23,0,0,1-3-4.39ZM95.24,96.9a2.81,2.81,0,0,1-.5-.15,16.42,16.42,0,0,0-7.51-2.09,6.53,6.53,0,0,0-4,.86c-1.51,1-3.1,1.83-4.66,2.73-.56.32-1.15.59-1.78.92.22.47.38.91.61,1.32a7.81,7.81,0,0,0,5.77,4.25,10.11,10.11,0,0,0,5.61-.88,15,15,0,0,1,7.56-1.31,18.26,18.26,0,0,1,5.3,1.33,2.76,2.76,0,0,0,.54.1c-.06-.23-.07-.38-.12-.51A16.38,16.38,0,0,1,102,90.55a13.82,13.82,0,0,0,.93-3.4,7.75,7.75,0,0,0-3.28-7.82,4.42,4.42,0,0,0-2.2-1.07c-.09.16-.17.28-.23.41a34.49,34.49,0,0,1-3.3,6.06,4,4,0,0,0-.73,2.15,15.35,15.35,0,0,0,0,2.63A18.48,18.48,0,0,0,94,93.75C94.34,94.77,94.78,95.77,95.24,96.9ZM61.8,121.12l.27-.64a15.81,15.81,0,0,1,8.5-9,20,20,0,0,0,2.61-1.32,8.45,8.45,0,0,0,3.4-3.86,8.88,8.88,0,0,0,0-6.32c-.2-.65-.3-.69-1-.45a46,46,0,0,1-6.8,2,2.47,2.47,0,0,0-1,.44,13.73,13.73,0,0,0-2.8,2.69,17.67,17.67,0,0,0-2.85,5.37c-.1.3-.12.68-.5.92-.16-.45-.29-.84-.43-1.22A15.78,15.78,0,0,0,55.72,102a2.81,2.81,0,0,0-1-.46,43.6,43.6,0,0,1-6.53-1.91c-.32-.13-.66-.2-1.07-.33-.21.75-.44,1.39-.58,2.05A7.79,7.79,0,0,0,48,108.13a10.63,10.63,0,0,0,4.58,3.24A14.91,14.91,0,0,1,60,117.69C60.62,118.77,61.16,119.92,61.8,121.12ZM97.62,48c.13.4.21.68.32,1a38.37,38.37,0,0,1,1.79,6.39,4.18,4.18,0,0,0,.78,1.76,15.9,15.9,0,0,0,7.14,5.19,3.24,3.24,0,0,1,1.34.58c-1.3.6-2.58,1.12-3.8,1.76a13.34,13.34,0,0,0-4.77,4.15,3.66,3.66,0,0,0-.63,1.34A39.1,39.1,0,0,1,98,76.65c-.13.33-.23.66-.36,1a8.37,8.37,0,0,0,5.11.78,7.87,7.87,0,0,0,5.48-3.84,28.08,28.08,0,0,0,1.73-3.58,15.11,15.11,0,0,1,6.6-7c.8-.44,1.64-.81,2.53-1.25L117.32,62a15.27,15.27,0,0,1-7.8-8.33A13.36,13.36,0,0,0,107.43,50c-2.19-2.66-5.13-3.36-8.47-2.49C98.53,47.63,98.13,47.79,97.62,48Zm-2.49-19.2c0,.19,0,.26,0,.3-.15.35-.33.7-.48,1.05a16.44,16.44,0,0,0-1.51,9,4.21,4.21,0,0,0,.68,1.8,39.93,39.93,0,0,1,3.3,6.06c.09.18.2.35.3.55a6.47,6.47,0,0,0,2.5-1.36,7.28,7.28,0,0,0,3-5,10.74,10.74,0,0,0-.82-5.81,15.76,15.76,0,0,1-.38-12.08c.18-.53.36-1.06.57-1.65-.93.33-1.72.65-2.54.9a14.89,14.89,0,0,1-8.29.23c-1.28-.34-2.5-.88-3.75-1.33a9.4,9.4,0,0,0-4.81-.4,7.72,7.72,0,0,0-5.48,4.25c-.22.4-.39.83-.59,1.27.34.19.56.33.8.44a25.75,25.75,0,0,1,5.32,3,5.94,5.94,0,0,0,3.57,1,15.2,15.2,0,0,0,6.31-1.18C93.56,29.49,94.31,29.14,95.13,28.77Z"/><path class="cls-1" d="M61.77,26a35.88,35.88,0,0,1,23.17,8.6A36.94,36.94,0,0,1,95,48.21a37.76,37.76,0,0,1,2.32,7.61,37.85,37.85,0,0,1-.63,16.75,36.87,36.87,0,0,1-19.44,23.6A33.37,33.37,0,0,1,65.9,99.44a43.29,43.29,0,0,1-5.21.26,36,36,0,0,1-22-8.44,37.1,37.1,0,0,1-11.23-16.5A32.29,32.29,0,0,1,25.8,66.9c-.11-1.38-.27-2.76-.26-4.14A37.88,37.88,0,0,1,27.15,52,36.42,36.42,0,0,1,57,26.31C58.57,26.09,60.18,26.08,61.77,26ZM95.84,62.55a30.15,30.15,0,0,0-.61-6.34A33.89,33.89,0,0,0,91,45.08a34.93,34.93,0,0,0-5.8-7.35,33.56,33.56,0,0,0-21.65-9.55,33,33,0,0,0-7.42.42A34.17,34.17,0,0,0,35.8,40.35a34.89,34.89,0,0,0-8.14,21.36,43.77,43.77,0,0,0,.24,5.12,32.75,32.75,0,0,0,3.33,11.5A34.27,34.27,0,0,0,55.16,96.9a34.53,34.53,0,0,0,6.32.69,34.49,34.49,0,0,0,4.75-.34A31.4,31.4,0,0,0,74.67,95a34.1,34.1,0,0,0,6.14-3.34,35.33,35.33,0,0,0,6.27-5.57,34.4,34.4,0,0,0,4.41-6.2A34.76,34.76,0,0,0,95.84,62.55Z"/><path class="cls-2" d="M46.74,26.51c-1.64.87-3.18,1.68-4.7,2.52a8.21,8.21,0,0,0-1.48,1,4.82,4.82,0,0,1-3.14,1,15.91,15.91,0,0,1-8.51-2,2.26,2.26,0,0,0-.33-.13.83.83,0,0,0-.25,0,2.64,2.64,0,0,0,.17.56,19,19,0,0,1,2,6.94,10.2,10.2,0,0,1-.37,3.76,2.17,2.17,0,0,1-.31.63,39.51,39.51,0,0,0-3.52,6.45,2.31,2.31,0,0,1-.22.34,8.29,8.29,0,0,1-5.41-6.19,10.15,10.15,0,0,1,.75-5.88,15,15,0,0,0,1.28-4.58,24.64,24.64,0,0,0,.06-3.54,16.42,16.42,0,0,0-1.57-5.72,5.36,5.36,0,0,1,.64.16,16.32,16.32,0,0,0,7.76,1.4A12.23,12.23,0,0,0,34,22.09a13.18,13.18,0,0,1,4.85-1.28,7.63,7.63,0,0,1,2.94.51A8.45,8.45,0,0,1,46.74,26.51Z"/><path class="cls-2" d="M26.07,78.16a4.6,4.6,0,0,1,.37.62,32.07,32.07,0,0,0,3.11,5.77,5.63,5.63,0,0,1,1,3.16,17.22,17.22,0,0,1-1.83,8.21c-.14.29-.26.58-.48,1,.36-.15.54-.2.71-.29a17.52,17.52,0,0,1,6.21-2,13.67,13.67,0,0,1,2.93,0,5.13,5.13,0,0,1,2.52,1,28,28,0,0,0,5.32,3c.27.11.51.27.83.44-1.2,2.87-3,4.94-6.18,5.57a10,10,0,0,1-5.62-.79,21.38,21.38,0,0,0-4.67-1.35,16.32,16.32,0,0,0-8,1.12l-.75.28s-.05,0-.17,0a2.26,2.26,0,0,1,.09-.54,16.38,16.38,0,0,0,1.32-5.31,15.08,15.08,0,0,0-.86-6.62,19.26,19.26,0,0,1-1.29-4.22,8,8,0,0,1,3-7.71A8.67,8.67,0,0,1,26.07,78.16Z"/><path class="cls-2" d="M25.87,77.65a7.28,7.28,0,0,1-3.37.89,7.51,7.51,0,0,1-7.1-3.85,28.83,28.83,0,0,1-1.78-3.56,15,15,0,0,0-5.93-6.64c-1-.63-2.07-1.1-3.19-1.69.27-.13.49-.26.72-.36A16.41,16.41,0,0,0,10.53,59a14.62,14.62,0,0,0,3.34-5,14,14,0,0,1,2.34-4.14,7.4,7.4,0,0,1,4.93-2.66,8.88,8.88,0,0,1,4.77.82c-.2.6-.41,1.18-.58,1.76-.48,1.71-1,3.4-1.38,5.12a6.49,6.49,0,0,1-1.62,3,16.5,16.5,0,0,1-7.47,4.73,4.77,4.77,0,0,0-.52.26l.84.32a15.36,15.36,0,0,1,8.16,5.93,2.54,2.54,0,0,1,.37.88,45.16,45.16,0,0,0,2.05,7.14C25.81,77.28,25.82,77.43,25.87,77.65Z"/><path class="cls-2" d="M61.82,4.58l.76,1.69a16.23,16.23,0,0,0,3,4.39A14.83,14.83,0,0,0,70.28,14a21.8,21.8,0,0,1,3.22,1.67A7.55,7.55,0,0,1,77,20.6a9.49,9.49,0,0,1-.65,5.76c-.61-.21-1.15-.44-1.71-.6-1.76-.5-3.51-1-5.29-1.45A5.21,5.21,0,0,1,67,23.1a15.9,15.9,0,0,1-4.46-6.41c-.25-.66-.49-1.32-.77-2.08a1.9,1.9,0,0,0-.29.48,16.05,16.05,0,0,1-3.29,6.21,26.33,26.33,0,0,1-2.8,2.57,1.47,1.47,0,0,1-.72.32,36.43,36.43,0,0,0-7.4,2.16,3.83,3.83,0,0,1-.72-1.89,8.26,8.26,0,0,1,0-4.19,8,8,0,0,1,2.79-4.11,11.79,11.79,0,0,1,3.2-1.87,15.7,15.7,0,0,0,8.77-8.9c.09-.22.18-.44.28-.65C61.67,4.69,61.73,4.66,61.82,4.58Z"/><path class="cls-2" d="M95.24,96.9c-.46-1.13-.9-2.13-1.27-3.15a18.48,18.48,0,0,1-.88-4.24,15.35,15.35,0,0,1,0-2.63,4,4,0,0,1,.73-2.15,34.49,34.49,0,0,0,3.3-6.06c.06-.13.14-.25.23-.41a4.42,4.42,0,0,1,2.2,1.07,7.75,7.75,0,0,1,3.28,7.82,13.82,13.82,0,0,1-.93,3.4,16.38,16.38,0,0,0,.12,12.92c.05.13.06.28.12.51a2.76,2.76,0,0,1-.54-.1,18.26,18.26,0,0,0-5.3-1.33,15,15,0,0,0-7.56,1.31,10.11,10.11,0,0,1-5.61.88,7.81,7.81,0,0,1-5.77-4.25c-.23-.41-.39-.85-.61-1.32.63-.33,1.22-.6,1.78-.92,1.56-.9,3.15-1.75,4.66-2.73a6.53,6.53,0,0,1,4-.86,16.42,16.42,0,0,1,7.51,2.09A2.81,2.81,0,0,0,95.24,96.9Z"/><path class="cls-2" d="M61.8,121.12c-.64-1.2-1.18-2.35-1.83-3.43a14.91,14.91,0,0,0-7.42-6.32A10.63,10.63,0,0,1,48,108.13a7.79,7.79,0,0,1-1.46-6.76c.14-.66.37-1.3.58-2.05.41.13.75.2,1.07.33a43.6,43.6,0,0,0,6.53,1.91,2.81,2.81,0,0,1,1,.46,15.78,15.78,0,0,1,5.53,7.73c.14.38.27.77.43,1.22.38-.24.4-.62.5-.92A17.67,17.67,0,0,1,65,104.68a13.73,13.73,0,0,1,2.8-2.69,2.47,2.47,0,0,1,1-.44,46,46,0,0,0,6.8-2c.66-.24.76-.2,1,.45a8.88,8.88,0,0,1,0,6.32,8.45,8.45,0,0,1-3.4,3.86,20,20,0,0,1-2.61,1.32,15.81,15.81,0,0,0-8.5,9Z"/><path class="cls-2" d="M97.62,48c.51-.18.91-.34,1.34-.45,3.34-.87,6.28-.17,8.47,2.49a13.36,13.36,0,0,1,2.09,3.67,15.27,15.27,0,0,0,7.8,8.33l1.75.84c-.89.44-1.73.81-2.53,1.25a15.11,15.11,0,0,0-6.6,7,28.08,28.08,0,0,1-1.73,3.58,7.87,7.87,0,0,1-5.48,3.84,8.37,8.37,0,0,1-5.11-.78c.13-.38.23-.71.36-1a39.1,39.1,0,0,0,1.81-6.56,3.66,3.66,0,0,1,.63-1.34,13.34,13.34,0,0,1,4.77-4.15c1.22-.64,2.5-1.16,3.8-1.76a3.24,3.24,0,0,0-1.34-.58,15.9,15.9,0,0,1-7.14-5.19,4.18,4.18,0,0,1-.78-1.76,38.37,38.37,0,0,0-1.79-6.39C97.83,48.65,97.75,48.37,97.62,48Z"/><path class="cls-2" d="M95.13,28.77c-.82.37-1.57.72-2.32,1A15.2,15.2,0,0,1,86.5,31a5.94,5.94,0,0,1-3.57-1,25.75,25.75,0,0,0-5.32-3c-.24-.11-.46-.25-.8-.44.2-.44.37-.87.59-1.27A7.72,7.72,0,0,1,82.88,21a9.4,9.4,0,0,1,4.81.4c1.25.45,2.47,1,3.75,1.33a14.89,14.89,0,0,0,8.29-.23c.82-.25,1.61-.57,2.54-.9-.21.59-.39,1.12-.57,1.65a15.76,15.76,0,0,0,.38,12.08,10.74,10.74,0,0,1,.82,5.81,7.28,7.28,0,0,1-3,5,6.47,6.47,0,0,1-2.5,1.36c-.1-.2-.21-.37-.3-.55a39.93,39.93,0,0,0-3.3-6.06,4.21,4.21,0,0,1-.68-1.8,16.44,16.44,0,0,1,1.51-8.95c.15-.35.33-.7.48-1.05C95.16,29,95.14,29,95.13,28.77Z"/><path d="M79.14,52.23C78.59,53.6,62.25,82.8,61.66,83.4Q53,67.85,44.31,52.31C45,52.11,77.93,52.05,79.14,52.23Zm-5.2,3.19H49.57L61.76,77.24Z"/><path d="M95.23,56.21A33.89,33.89,0,0,0,91,45.08a34.93,34.93,0,0,0-5.8-7.35,33.56,33.56,0,0,0-21.65-9.55,33,33,0,0,0-7.42.42A34.17,34.17,0,0,0,35.8,40.35a34.89,34.89,0,0,0-8.14,21.36,43.77,43.77,0,0,0,.24,5.12,32.75,32.75,0,0,0,3.33,11.5A34.27,34.27,0,0,0,55.16,96.9a34.53,34.53,0,0,0,6.32.69,34.49,34.49,0,0,0,4.75-.34A31.4,31.4,0,0,0,74.67,95a34.1,34.1,0,0,0,6.14-3.34,35.33,35.33,0,0,0,6.27-5.57,34.4,34.4,0,0,0,4.41-6.2,34.76,34.76,0,0,0,4.35-17.32A30.15,30.15,0,0,0,95.23,56.21Z"/><path d="M54.35,58.27H69.18L61.85,71.43a6.86,6.86,0,0,1-.67-.88c-1.07-1.93-2.1-3.88-3.18-5.81S55.87,61,54.8,59.15C54.66,58.9,54.54,58.63,54.35,58.27Zm8.87,4.53a1.54,1.54,0,0,0-1.44-1.51,1.52,1.52,0,0,0-1.49,1.54,1.42,1.42,0,0,0,1.48,1.51A1.45,1.45,0,0,0,63.22,62.8Z"/><path class="cls-2" d="M63.22,62.8a1.45,1.45,0,0,1-1.45,1.54,1.42,1.42,0,0,1-1.48-1.51,1.52,1.52,0,0,1,1.49-1.54A1.54,1.54,0,0,1,63.22,62.8Z"/><path class="cls-1" d="M64.91,49h-6L57.81,51.1h8.24Zm10.3,18.87L74,70l-.33.58-1.19,2.07h2.38L76.37,70ZM69,78.66,61.93,90.92,54.85,78.66l-1.2-2.07H51.27l1.19,2.07,9.47,16.39,9.46-16.39,1.19-2.07H70.2ZM50.18,70.58,49.85,70l-1.2-2.1L47.48,70,49,72.65h2.37ZM69,49l1.2,2.06H84.91L78.75,61.78l-1.19,2.07,1.19,2.06,1.19-2.06L88.49,49ZM35.37,49l8.54,14.81,1.2,2.06,1.18-2.06-1.18-2.07L38.94,51.1H53.65L54.85,49Z"/><path class="cls-1" d="M68.19,55.05H55.66l-1.13,2.06H69.32Zm3.63,6.64-1.18,2.16L67,70.58l-1.13,2.07h2.35l1.13-2.07L71.82,66,73,63.85Zm-9.26,17-.63,1.17-.64-1.17-1.13-2.07H57.81l1.13,2.07,3,5.48,3-5.48,1.14-2.07H63.69Zm-5.67-8.08-3.68-6.73L52,61.69l-1.18,2.16L52,66l2.49,4.58,1.13,2.07H58ZM72.48,55.05l1.19,2.06h.65l-.32.58,1.21,2.1,1.16-2.13,1.43-2.61Zm-21.11,0H46.06l1.42,2.61,1.17,2.12,1.2-2.09-.31-.58h.64Z"/><path class="cls-2" d="M73.67,57.11l.33.58.32-.58ZM49,55.05l-1.52,2.61-2.37,4.12,1.18,2.07,2.36-4.07,1.2-2.09.33-.58,1.19-2.06,2.28-3.95H51.27Zm30.94,8.8-1.19-2.07-2.38-4.12-1.51-2.61L72.58,51.1,71.39,49,61.93,32.65,52.46,49,51.27,51.1,49,55.05l-1.52,2.61-2.37,4.12-1.2,2.07L35.37,78.66H88.49Zm-41,12.74,6.17-10.68,1.18-2.06,2.36-4.07,1.2-2.09.33-.58,1.19-2.06,2.28-3.95L54.85,49l7.08-12.26L69,49l1.2,2.06,2.28,3.95,1.19,2.06.33.58,1.21,2.1,2.35,4.06,1.19,2.06,6.16,10.68ZM51.27,51.1,49,55.05l-1.52,2.61-2.37,4.12,1.18,2.07,2.36-4.07,1.2-2.09.33-.58,1.19-2.06,2.28-3.95Z"/><path class="cls-2" d="M50.18,70.58l1.19,2.07H65.84L67,70.58ZM76.37,70l-1.16-2.12L73,63.85l-1.18-2.16-2.5-4.58-1.13-2.06L66.05,51.1,64.91,49l-3-5.48-3,5.48L57.81,51.1l-2.15,3.95-1.13,2.06L52,61.69l-1.18,2.16-2.21,4.06L47.48,70l-1.42,2.62H77.8Zm-26.83.55.31-.57L52,66l1.17-2.15,3.68-6.74L58,55.05l2.15-3.95L61.29,49l.64-1.17L62.56,49l1.13,2.06,2.15,3.95L67,57.11l3.67,6.74L71.82,66,74,70l.32.58Zm.64,0,1.19,2.07H65.84L67,70.58ZM69.32,57.11H67l3.67,6.74,1.18-2.16Z"/></svg>